<svg xmlns="http://www.w3.org/2000/svg" viewBox="0 0 512 512">
  <defs>
    <linearGradient id="bg" x1="0%" y1="0%" x2="100%" y2="100%">
      <stop offset="0%" style="stop-color:#2d1b69"/>
      <stop offset="100%" style="stop-color:#1a1a2e"/>
    </linearGradient>
    <linearGradient id="accent" x1="0%" y1="0%" x2="100%" y2="100%">
      <stop offset="0%" style="stop-color:#a78bfa"/>
      <stop offset="100%" style="stop-color:#7c3aed"/>
    </linearGradient>
  </defs>

  <!-- Background rounded square -->
  <rect width="512" height="512" rx="96" fill="url(#bg)"/>

  <!-- Manga speech bubble -->
  <path d="M120 140 C120 110, 150 80, 180 80 L332 80 C362 80, 392 110, 392 140 L392 260 C392 290, 362 320, 332 320 L260 320 L220 370 L210 320 L180 320 C150 320, 120 290, 120 260 Z"
        fill="none" stroke="url(#accent)" stroke-width="20" stroke-linejoin="round"/>

  <!-- Magnifying glass inside bubble -->
  <circle cx="240" cy="190" r="55" fill="none" stroke="#e2e8f0" stroke-width="16"/>
  <line x1="278" y1="228" x2="320" y2="275" stroke="#e2e8f0" stroke-width="16" stroke-linecap="round"/>

  <!-- Small sparkle/star effect (insight) -->
  <circle cx="340" cy="120" r="6" fill="#fbbf24"/>
  <circle cx="365" cy="145" r="4" fill="#fbbf24" opacity="0.7"/>
  <circle cx="355" cy="105" r="3" fill="#fbbf24" opacity="0.5"/>

  <!-- Bottom text: 考察 -->
  <text x="256" y="440" text-anchor="middle" font-family="sans-serif" font-weight="900" font-size="72" fill="#a78bfa">考察</text>
</svg>